<svg xmlns="http://www.w3.org/2000/svg" style="-webkit-print-color-adjust:exact" fill="none" viewBox="0 0 500 500"><g xmlns:xlink="http://www.w3.org/1999/xlink" style="fill:#000"><rect width="500" height="500" style="isolation:isolate;fill:none" ry="0" fill="none" rx="0" class="fills"/><g style="fill:#000"><rect rx="0" ry="0" width="469.484" height="500" style="isolation:isolate;fill:#2f2f2f;fill-opacity:0" fill="none" class="fills"/><g style="fill:#000"><defs><linearGradient id="a" x1=".922" y1=".933" x2=".522" y2=".485"><stop offset="0" stop-color="#663279"/><stop offset="1" stop-color="#9141ac"/></linearGradient><pattern patternUnits="userSpaceOnUse" x="161.83" y="5.774" height="129.929" width="129.929" data-loading="false" id="b"><path style="fill:url(#a)" d="M0 0h129.929v129.929H0z"/></pattern></defs><path d="M178.072 113.728c-23.726-26.889-21.157-67.984 5.732-91.711C210.695-1.71 251.789.859 275.516 27.749c23.727 26.89 21.158 67.985-5.731 91.712-26.891 23.727-67.986 21.158-91.713-5.733Z" fill="url(#b)" style="isolation:isolate" class="fills"/><defs><linearGradient id="c" x1=".922" y1=".933" x2=".522" y2=".485"><stop offset="0" stop-color="#663279"/><stop offset="1" stop-color="#9141ac"/></linearGradient><pattern patternUnits="userSpaceOnUse" x="90.16" y="69.01" height="129.929" width="129.929" data-loading="false" id="d"><path style="fill:url(#c)" d="M0 0h129.929v129.929H0z"/></pattern></defs><path d="M106.403 176.963c-23.727-26.889-21.158-67.983 5.731-91.71 26.891-23.727 67.986-21.158 91.712 5.731 23.727 26.891 21.158 67.986-5.731 91.712-26.891 23.727-67.985 21.158-91.712-5.733Z" fill="url(#d)" style="isolation:isolate" class="fills"/><defs><linearGradient id="e" x1=".813" y1=".211" x2=".52" y2=".5"><stop offset="0" stop-color="#9f681f"/><stop offset="1" stop-color="#e38e27"/></linearGradient><pattern patternUnits="userSpaceOnUse" x="0" y="330.045" height="164.18" width="171.462" data-loading="false" id="f"><path style="fill:url(#e)" d="M0 0h171.462v164.18H0z"/></pattern></defs><path d="m81.154 331.275 89.892 101.879C178.038 454.06 95.757 487.09 0 494.226c19.182-86.053 56.074-175.772 81.154-162.951Z" fill="url(#f)" style="isolation:isolate" class="fills"/><defs><linearGradient id="g" x1=".503" y1=".422" x2=".966" y2=".035"><stop offset="0" stop-color="#9141ac"/><stop offset="1" stop-color="#461e54"/></linearGradient><pattern patternUnits="userSpaceOnUse" x="66.985" y="279.114" height="170.262" width="175.091" data-loading="false" id="h"><path style="fill:url(#g)" d="M0 0h175.091v170.262H0z"/></pattern></defs><path d="m223.771 279.644-71.699 14.488-71.699 14.488c-13.904 2.809-17.573 13.725-8.188 24.362l48.397 54.848 48.395 54.85c9.386 10.635 20.674 8.355 25.192-5.091l23.303-69.336 23.302-69.338c4.518-13.446-3.1-22.081-17.003-19.271Z" fill="url(#h)" style="isolation:isolate" class="fills"/><path d="M111.126 230.166 327.712 39.057c9.272-8.182 23.443-7.296 31.625 1.975L494.4 194.107c8.18 9.271 7.295 23.442-1.977 31.624L275.836 416.84c-9.272 8.182-23.443 7.297-31.624-1.975L109.148 261.791c-8.18-9.272-7.294-23.443 1.978-31.625Z" style="isolation:isolate;stroke-miterlimit:10;fill:#9141ac" class="fills"/></g></g></g></svg>